# xmcd
#
# Track frame offsets:
#	150
#	19023
#	33873
#	44255
#	67998
#	84798
#	101900
#	121553
#	145175
#	161225
#	180950
#	197600
#	212453
#	228123
#
# Disc length: 3233 seconds
# Revision: 0
# Processed by: cddbd v1.5.2PL0 Copyright (c) Steve Scherf et al.
# Submitted via: dBpowerAMP V12.0
#
DISCID=a30c9f0e
DTITLE=Tim Gaze and The Blues Doctors - Blues Remedy
DYEAR=1998
DGENRE=Blues
TTITLE0=Hell to Pay
TTITLE1=Lonesome Traveller Blues
TTITLE2=She Loves My Automobile
TTITLE3=Blues With a Feeling
TTITLE4=Baby Please Don't Go
TTITLE5=Twin City Blues
TTITLE6=Ain't No Justice
TTITLE7=For Just Once
TTITLE8=Who's Been Talkin'?
TTITLE9=Mad Woman Blues
TTITLE10=You Got Good Business
TTITLE11=Parchman Farm Blues
TTITLE12=Riverside Blues
TTITLE13=Nobody Knows You
EXTD=
EXTT0=
EXTT1=
EXTT2=
EXTT3=
EXTT4=
EXTT5=
EXTT6=
EXTT7=
EXTT8=
EXTT9=
EXTT10=
EXTT11=
EXTT12=
EXTT13=
PLAYORDER=
